# xmcd
#
# Track frame offsets: 
#        150
#        8665
#        22534
#        44015
#        61741
#        96740
#        117374
#        153479
#        193668
#        202821
#        206909
#        209574
#        213460
#        217654
#        226294
#        236151
#        260713
#        275677
#
# Disc length: 3979 seconds
#
# Revision: 2
# Processed by: cddbd v1.5.2PL0 Copyright (c) Steve Scherf et al.
# Submitted via: ExactAudioCopyFreeDBPlugin 1.0
#
DISCID=0c0f8912
DTITLE=The Isley Brothers - The Isley Brothers Live at Yankee Stadium
DYEAR=1969
DGENRE=Oldies
TTITLE0=Introduction
TTITLE1=I Know Who You Been Socking it To
TTITLE2=I Turned You On
TTITLE3=It's Your Thing
TTITLE4=Shout
TTITLE5=The Edwin Hawkins Singers - Jesus, Lover of My Soul
TTITLE6=The Edwin Hawkins Singers - Joy, Joy
TTITLE7=The Edwin Hawkins Singers - Oh Happy Day
TTITLE8=The Brooklyn Bridge - People Get Ready
TTITLE9=The Brooklyn Bridge - Talkin' About My Baby
TTITLE10=The Brooklyn Bridge - It's All Right
TTITLE11=The Brooklyn Bridge - Keep on Pushing
TTITLE12=The Brooklyn Bridge - You Must Believe Me
TTITLE13=The Brooklyn Bridge - I'm So Proud
TTITLE14=The Brooklyn Bridge - Amen
TTITLE15=The Five Stairsteps - Don't Change Your Love (ft Cubie)
TTITLE16=Judy White - Somebody Been Messin'
TTITLE17=The Sweet Cherries - Love is What You Make It
EXTD=
EXTT0=
EXTT1=
EXTT2=
EXTT3=
EXTT4=
EXTT5=
EXTT6=
EXTT7=
EXTT8=
EXTT9=
EXTT10=
EXTT11=
EXTT12=
EXTT13=
EXTT14=
EXTT15=
EXTT16=
EXTT17=
PLAYORDER=
